ffmpeg started on 2025-06-05 at 19:29:07
Report written to "D:\Convert\FFMetrics\reports\psnr_report-6.txt"
Log level: 32
Command line:
ffmpeg -hide_banner -nostdin -i "G:\\\xc0\xed\xe8\xec\xe5\\\xce\xed\xe3\xee\xe8\xed\xe3\xe8\\!_36_\xce\xf1\xe5\xed\xfc_2024\\DreamCast\\\xcd\xe0\xef\xe0\xe4\xe5\xed\xe8\xe5 \xee\xe4\xe8\xed\xee\xf7\xea\xe8 \xed\xe0 \xe8\xed\xee\xe9 \xec\xe8\xf0\\[DC] Hitoribocchi no Isekai Kouryaku - 01_Telegram_HEVC.mkv" -i "G:\\\xc0\xed\xe8\xec\xe5\\\xce\xed\xe3\xee\xe8\xed\xe3\xe8\\!_36_\xce\xf1\xe5\xed\xfc_2024\\DreamCast\\\xcd\xe0\xef\xe0\xe4\xe5\xed\xe8\xe5 \xee\xe4\xe8\xed\xee\xf7\xea\xe8 \xed\xe0 \xe8\xed\xee\xe9 \xec\xe8\xf0\\[DC] Hitoribocchi no Isekai Kouryaku - 01_Telegram.mp4" -lavfi "[0:v]settb=AVTB,setpts=PTS-STARTPTS,format=pix_fmts=yuv420p10,fps=24000/1001,scale=1920:1080:flags=bicubic[main];[1:v]settb=AVTB,setpts=PTS-STARTPTS,format=pix_fmts=yuv420p,fps=24000/1001,scale=1920:1080:flags=bicubic[ref];[main][ref]psnr=eof_action=endall:stats_file='D\\:/Convert/FFMetrics/logs/psnr_logfile-6.txt'" -f null -
Input #0, matroska,webm, from 'G:\Аниме\Онгоинги\!_36_Осень_2024\DreamCast\Нападение одиночки на иной мир\[DC] Hitoribocchi no Isekai Kouryaku - 01_Telegram_HEVC.mkv':
  Metadata:
    COMPATIBLE_BRANDS: isomiso2avc1mp41
    MAJOR_BRAND     : isom
    MINOR_VERSION   : 512
    ENCODER         : Lavf61.7.100
  Duration: 00:23:46.82, start: -0.021000, bitrate: 1231 kb/s
  Stream #0:0: Video: hevc (Main 10), yuv420p10le(tv, bt709, progressive), 1920x1080 [SAR 1:1 DAR 16:9], 23.98 fps, 23.98 tbr, 1k tbn (default)
      Metadata:
        HANDLER_NAME    : VideoHandler
        VENDOR_ID       : [0][0][0][0]
        ENCODER         : Lavc61.19.100 libx265
        BPS             : 1033677
        DURATION        : 00:23:46.716708333
        NUMBER_OF_FRAMES: 34207
        NUMBER_OF_BYTES : 184345493
        _STATISTICS_WRITING_APP: mkvpropedit v66.0.0 ('Josie') 64-bit
        _STATISTICS_WRITING_DATE_UTC: 2025-05-31 09:25:58
        _STATISTICS_TAGS: BPS DURATION NUMBER_OF_FRAMES NUMBER_OF_BYTES
  Stream #0:1: Audio: aac (LC), 48000 Hz, stereo, fltp (default)
      Metadata:
        HANDLER_NAME    : SoundHandler
        VENDOR_ID       : [0][0][0][0]
        ENCODER         : Lavc61.19.100 aac
        BPS             : 193735
        DURATION        : 00:23:46.816000000
        NUMBER_OF_FRAMES: 66883
        NUMBER_OF_BYTES : 34553116
        _STATISTICS_WRITING_APP: mkvpropedit v66.0.0 ('Josie') 64-bit
        _STATISTICS_WRITING_DATE_UTC: 2025-05-31 09:25:58
        _STATISTICS_TAGS: BPS DURATION NUMBER_OF_FRAMES NUMBER_OF_BYTES
Input #1, mov,mp4,m4a,3gp,3g2,mj2, from 'G:\Аниме\Онгоинги\!_36_Осень_2024\DreamCast\Нападение одиночки на иной мир\[DC] Hitoribocchi no Isekai Kouryaku - 01_Telegram.mp4':
  Metadata:
    major_brand     : isom
    minor_version   : 512
    compatible_brands: isomiso2avc1mp41
    encoder         : Lavf60.16.100
  Duration: 00:23:46.78, start: 0.000000, bitrate: 3525 kb/s
  Stream #1:0[0x1](und): Video: h264 (High) (avc1 / 0x31637661), yuv420p(tv, bt709, progressive), 1920x1080 [SAR 1:1 DAR 16:9], 3377 kb/s, 23.98 fps, 23.98 tbr, 24k tbn (default)
      Metadata:
        handler_name    : VideoHandler
        vendor_id       : [0][0][0][0]
        encoder         : Lavc60.31.102 h264_qsv
  Stream #1:1[0x2](und): Audio: aac (HE-AACv2) (mp4a / 0x6134706D), 48000 Hz, stereo, fltp, 144 kb/s (default)
      Metadata:
        handler_name    : SoundHandler
        vendor_id       : [0][0][0][0]
Stream mapping:
  Stream #0:0 (hevc) -> settb:default
  Stream #1:0 (h264) -> settb:default
  psnr:default -> Stream #0:0 (wrapped_avframe)
  Stream #0:1 -> #0:1 (aac (native) -> pcm_s16le (native))
Output #0, null, to 'pipe:':
  Metadata:
    COMPATIBLE_BRANDS: isomiso2avc1mp41
    MAJOR_BRAND     : isom
    MINOR_VERSION   : 512
    encoder         : Lavf61.7.100
  Stream #0:0: Video: wrapped_avframe, yuv420p10le(tv, bt709, progressive), 1920x1080 [SAR 1:1 DAR 16:9], q=2-31, 200 kb/s, 23.98 fps, 23.98 tbn
      Metadata:
        encoder         : Lavc61.19.100 wrapped_avframe
  Stream #0:1: Audio: pcm_s16le, 48000 Hz, stereo, s16, 1536 kb/s (default)
      Metadata:
        HANDLER_NAME    : SoundHandler
        VENDOR_ID       : [0][0][0][0]
        _STATISTICS_TAGS: BPS DURATION NUMBER_OF_FRAMES NUMBER_OF_BYTES
        BPS             : 193735
        DURATION        : 00:23:46.816000000
        NUMBER_OF_FRAMES: 66883
        NUMBER_OF_BYTES : 34553116
        _STATISTICS_WRITING_APP: mkvpropedit v66.0.0 ('Josie') 64-bit
        _STATISTICS_WRITING_DATE_UTC: 2025-05-31 09:25:58
        encoder         : Lavc61.19.100 pcm_s16le
frame=  176 fps=0.0 q=-0.0 size=N/A time=00:00:07.34 bitrate=N/A speed=14.5x    frame=  423 fps=409 q=-0.0 size=N/A time=00:00:17.64 bitrate=N/A speed=17.1x    frame=  686 fps=441 q=-0.0 size=N/A time=00:00:28.61 bitrate=N/A speed=18.4x    frame=  885 fps=426 q=-0.0 size=N/A time=00:00:36.91 bitrate=N/A speed=17.8x    frame= 1145 fps=442 q=-0.0 size=N/A time=00:00:47.75 bitrate=N/A speed=18.5x    frame= 1344 fps=432 q=-0.0 size=N/A time=00:00:56.05 bitrate=N/A speed=  18x    frame= 1618 fps=445 q=-0.0 size=N/A time=00:01:07.48 bitrate=N/A speed=18.6x    frame= 1872 fps=450 q=-0.0 size=N/A time=00:01:18.07 bitrate=N/A speed=18.8x    frame= 2108 fps=452 q=-0.0 size=N/A time=00:01:27.92 bitrate=N/A speed=18.8x    frame= 2289 fps=442 q=-0.0 size=N/A time=00:01:35.47 bitrate=N/A speed=18.4x    frame= 2548 fps=447 q=-0.0 size=N/A time=00:01:46.27 bitrate=N/A speed=18.6x    frame= 2792 fps=449 q=-0.0 size=N/A time=00:01:56.44 bitrate=N/A speed=18.7x    frame= 3041 fps=452 q=-0.0 size=N/A time=00:02:06.83 bitrate=N/A speed=18.9x    frame= 3295 fps=455 q=-0.0 size=N/A time=00:02:17.42 bitrate=N/A speed=  19x    frame= 3560 fps=459 q=-0.0 size=N/A time=00:02:28.48 bitrate=N/A speed=19.1x    frame= 3770 fps=456 q=-0.0 size=N/A time=00:02:37.24 bitrate=N/A speed=  19x    frame= 4014 fps=457 q=-0.0 size=N/A time=00:02:47.41 bitrate=N/A speed=19.1x    frame= 4269 fps=458 q=-0.0 size=N/A time=00:02:58.05 bitrate=N/A speed=19.1x    frame= 4518 fps=460 q=-0.0 size=N/A time=00:03:08.43 bitrate=N/A speed=19.2x    frame= 4723 fps=457 q=-0.0 size=N/A time=00:03:16.98 bitrate=N/A speed=19.1x    frame= 4922 fps=453 q=-0.0 size=N/A time=00:03:25.28 bitrate=N/A speed=18.9x    frame= 5183 fps=456 q=-0.0 size=N/A time=00:03:36.17 bitrate=N/A speed=  19x    frame= 5434 fps=457 q=-0.0 size=N/A time=00:03:46.64 bitrate=N/A speed=19.1x    frame= 5709 fps=460 q=-0.0 size=N/A time=00:03:58.11 bitrate=N/A speed=19.2x    frame= 5943 fps=460 q=-0.0 size=N/A time=00:04:07.87 bitrate=N/A speed=19.2x    frame= 6195 fps=461 q=-0.0 size=N/A time=00:04:18.38 bitrate=N/A speed=19.2x    frame= 6455 fps=463 q=-0.0 size=N/A time=00:04:29.22 bitrate=N/A speed=19.3x    frame= 6702 fps=463 q=-0.0 size=N/A time=00:04:39.52 bitrate=N/A speed=19.3x    frame= 6977 fps=466 q=-0.0 size=N/A time=00:04:50.99 bitrate=N/A speed=19.4x    frame= 7227 fps=467 q=-0.0 size=N/A time=00:05:01.42 bitrate=N/A speed=19.5x    frame= 7486 fps=467 q=-0.0 size=N/A time=00:05:12.22 bitrate=N/A speed=19.5x    frame= 7738 fps=468 q=-0.0 size=N/A time=00:05:22.73 bitrate=N/A speed=19.5x    frame= 7979 fps=468 q=-0.0 size=N/A time=00:05:32.79 bitrate=N/A speed=19.5x    frame= 8229 fps=469 q=-0.0 size=N/A time=00:05:43.21 bitrate=N/A speed=19.5x    frame= 8478 fps=469 q=-0.0 size=N/A time=00:05:53.60 bitrate=N/A speed=19.6x    frame= 8719 fps=469 q=-0.0 size=N/A time=00:06:03.65 bitrate=N/A speed=19.6x    frame= 8975 fps=470 q=-0.0 size=N/A time=00:06:14.33 bitrate=N/A speed=19.6x    frame= 9221 fps=470 q=-0.0 size=N/A time=00:06:24.59 bitrate=N/A speed=19.6x    frame= 9458 fps=470 q=-0.0 size=N/A time=00:06:34.47 bitrate=N/A speed=19.6x    frame= 9669 fps=468 q=-0.0 size=N/A time=00:06:43.27 bitrate=N/A speed=19.5x    frame= 9869 fps=466 q=-0.0 size=N/A time=00:06:51.61 bitrate=N/A speed=19.4x    frame=10054 fps=464 q=-0.0 size=N/A time=00:06:59.33 bitrate=N/A speed=19.3x    frame=10302 fps=464 q=-0.0 size=N/A time=00:07:09.67 bitrate=N/A speed=19.3x    frame=10556 fps=464 q=-0.0 size=N/A time=00:07:20.27 bitrate=N/A speed=19.4x    frame=10813 fps=465 q=-0.0 size=N/A time=00:07:30.99 bitrate=N/A speed=19.4x    frame=11072 fps=466 q=-0.0 size=N/A time=00:07:41.79 bitrate=N/A speed=19.4x    frame=11314 fps=466 q=-0.0 size=N/A time=00:07:51.88 bitrate=N/A speed=19.4x    frame=11563 fps=466 q=-0.0 size=N/A time=00:08:02.27 bitrate=N/A speed=19.4x    frame=11813 fps=467 q=-0.0 size=N/A time=00:08:12.70 bitrate=N/A speed=19.5x    frame=12066 fps=467 q=-0.0 size=N/A time=00:08:23.25 bitrate=N/A speed=19.5x    frame=12309 fps=467 q=-0.0 size=N/A time=00:08:33.38 bitrate=N/A speed=19.5x    frame=12569 fps=468 q=-0.0 size=N/A time=00:08:44.23 bitrate=N/A speed=19.5x    frame=12820 fps=468 q=-0.0 size=N/A time=00:08:54.70 bitrate=N/A speed=19.5x    frame=13054 fps=468 q=-0.0 size=N/A time=00:09:04.46 bitrate=N/A speed=19.5x    frame=13250 fps=466 q=-0.0 size=N/A time=00:09:12.63 bitrate=N/A speed=19.4x    frame=13431 fps=464 q=-0.0 size=N/A time=00:09:20.18 bitrate=N/A speed=19.4x    frame=13636 fps=463 q=-0.0 size=N/A time=00:09:28.73 bitrate=N/A speed=19.3x    frame=13862 fps=463 q=-0.0 size=N/A time=00:09:38.16 bitrate=N/A speed=19.3x    frame=14102 fps=463 q=-0.0 size=N/A time=00:09:48.17 bitrate=N/A speed=19.3x    frame=14376 fps=464 q=-0.0 size=N/A time=00:09:59.59 bitrate=N/A speed=19.3x    frame=14542 fps=462 q=-0.0 size=N/A time=00:10:06.52 bitrate=N/A speed=19.3x    frame=14735 fps=460 q=-0.0 size=N/A time=00:10:14.57 bitrate=N/A speed=19.2x    frame=14991 fps=461 q=-0.0 size=N/A time=00:10:25.24 bitrate=N/A speed=19.2x    frame=15220 fps=460 q=-0.0 size=N/A time=00:10:34.80 bitrate=N/A speed=19.2x    frame=15411 fps=459 q=-0.0 size=N/A time=00:10:42.76 bitrate=N/A speed=19.1x    frame=15625 fps=458 q=-0.0 size=N/A time=00:10:51.69 bitrate=N/A speed=19.1x    frame=15856 fps=458 q=-0.0 size=N/A time=00:11:01.32 bitrate=N/A speed=19.1x    frame=16084 fps=458 q=-0.0 size=N/A time=00:11:10.83 bitrate=N/A speed=19.1x    frame=16355 fps=459 q=-0.0 size=N/A time=00:11:22.13 bitrate=N/A speed=19.1x    frame=16610 fps=460 q=-0.0 size=N/A time=00:11:32.77 bitrate=N/A speed=19.2x    frame=16868 fps=460 q=-0.0 size=N/A time=00:11:43.53 bitrate=N/A speed=19.2x    frame=17133 fps=461 q=-0.0 size=N/A time=00:11:54.58 bitrate=N/A speed=19.2x    frame=17385 fps=461 q=-0.0 size=N/A time=00:12:05.09 bitrate=N/A speed=19.2x    frame=17660 fps=462 q=-0.0 size=N/A time=00:12:16.56 bitrate=N/A speed=19.3x    frame=17927 fps=463 q=-0.0 size=N/A time=00:12:27.70 bitrate=N/A speed=19.3x    frame=18200 fps=464 q=-0.0 size=N/A time=00:12:39.09 bitrate=N/A speed=19.3x    frame=18464 fps=464 q=-0.0 size=N/A time=00:12:50.10 bitrate=N/A speed=19.4x    frame=18715 fps=465 q=-0.0 size=N/A time=00:13:00.57 bitrate=N/A speed=19.4x    frame=18962 fps=465 q=-0.0 size=N/A time=00:13:10.87 bitrate=N/A speed=19.4x    frame=19177 fps=464 q=-0.0 size=N/A time=00:13:19.84 bitrate=N/A speed=19.4x    frame=19436 fps=465 q=-0.0 size=N/A time=00:13:30.64 bitrate=N/A speed=19.4x    frame=19691 fps=465 q=-0.0 size=N/A time=00:13:41.27 bitrate=N/A speed=19.4x    frame=19928 fps=465 q=-0.0 size=N/A time=00:13:51.16 bitrate=N/A speed=19.4x    frame=20167 fps=465 q=-0.0 size=N/A time=00:14:01.13 bitrate=N/A speed=19.4x    frame=20393 fps=465 q=-0.0 size=N/A time=00:14:10.55 bitrate=N/A speed=19.4x    frame=20636 fps=465 q=-0.0 size=N/A time=00:14:20.69 bitrate=N/A speed=19.4x    frame=20888 fps=465 q=-0.0 size=N/A time=00:14:31.20 bitrate=N/A speed=19.4x    frame=21146 fps=465 q=-0.0 size=N/A time=00:14:41.96 bitrate=N/A speed=19.4x    frame=21363 fps=465 q=-0.0 size=N/A time=00:14:51.01 bitrate=N/A speed=19.4x    frame=21551 fps=464 q=-0.0 size=N/A time=00:14:58.85 bitrate=N/A speed=19.3x    frame=21723 fps=462 q=-0.0 size=N/A time=00:15:06.03 bitrate=N/A speed=19.3x    frame=21914 fps=461 q=-0.0 size=N/A time=00:15:13.99 bitrate=N/A speed=19.2x    frame=22081 fps=460 q=-0.0 size=N/A time=00:15:20.96 bitrate=N/A speed=19.2x    frame=22312 fps=460 q=-0.0 size=N/A time=00:15:30.59 bitrate=N/A speed=19.2x    frame=22538 fps=460 q=-0.0 size=N/A time=00:15:40.02 bitrate=N/A speed=19.2x    frame=22754 fps=459 q=-0.0 size=N/A time=00:15:49.03 bitrate=N/A speed=19.2x    frame=23006 fps=459 q=-0.0 size=N/A time=00:15:59.54 bitrate=N/A speed=19.2x    frame=23252 fps=460 q=-0.0 size=N/A time=00:16:09.80 bitrate=N/A speed=19.2x    frame=23490 fps=460 q=-0.0 size=N/A time=00:16:19.72 bitrate=N/A speed=19.2x    frame=23751 fps=460 q=-0.0 size=N/A time=00:16:30.61 bitrate=N/A speed=19.2x    frame=23971 fps=460 q=-0.0 size=N/A time=00:16:39.79 bitrate=N/A speed=19.2x    frame=24225 fps=460 q=-0.0 size=N/A time=00:16:50.38 bitrate=N/A speed=19.2x    frame=24444 fps=460 q=-0.0 size=N/A time=00:16:59.51 bitrate=N/A speed=19.2x    frame=24703 fps=460 q=-0.0 size=N/A time=00:17:10.32 bitrate=N/A speed=19.2x    frame=24951 fps=460 q=-0.0 size=N/A time=00:17:20.66 bitrate=N/A speed=19.2x    frame=25184 fps=460 q=-0.0 size=N/A time=00:17:30.38 bitrate=N/A speed=19.2x    frame=25433 fps=461 q=-0.0 size=N/A time=00:17:40.76 bitrate=N/A speed=19.2x    frame=25677 fps=461 q=-0.0 size=N/A time=00:17:50.94 bitrate=N/A speed=19.2x    frame=25892 fps=460 q=-0.0 size=N/A time=00:17:59.91 bitrate=N/A speed=19.2x    frame=26146 fps=461 q=-0.0 size=N/A time=00:18:10.50 bitrate=N/A speed=19.2x    frame=26414 fps=461 q=-0.0 size=N/A time=00:18:21.68 bitrate=N/A speed=19.2x    frame=26629 fps=461 q=-0.0 size=N/A time=00:18:30.65 bitrate=N/A speed=19.2x    frame=26826 fps=460 q=-0.0 size=N/A time=00:18:38.86 bitrate=N/A speed=19.2x    frame=26982 fps=459 q=-0.0 size=N/A time=00:18:45.37 bitrate=N/A speed=19.1x    frame=27129 fps=457 q=-0.0 size=N/A time=00:18:51.50 bitrate=N/A speed=19.1x    frame=27280 fps=456 q=-0.0 size=N/A time=00:18:57.80 bitrate=N/A speed=  19x    frame=27481 fps=455 q=-0.0 size=N/A time=00:19:06.18 bitrate=N/A speed=  19x    frame=27705 fps=455 q=-0.0 size=N/A time=00:19:15.52 bitrate=N/A speed=  19x    frame=27953 fps=455 q=-0.0 size=N/A time=00:19:25.87 bitrate=N/A speed=  19x    frame=28230 fps=456 q=-0.0 size=N/A time=00:19:37.42 bitrate=N/A speed=  19x    frame=28437 fps=455 q=-0.0 size=N/A time=00:19:46.05 bitrate=N/A speed=  19x    frame=28680 fps=456 q=-0.0 size=N/A time=00:19:56.19 bitrate=N/A speed=  19x    frame=28927 fps=456 q=-0.0 size=N/A time=00:20:06.49 bitrate=N/A speed=  19x    frame=29169 fps=456 q=-0.0 size=N/A time=00:20:16.59 bitrate=N/A speed=  19x    frame=29423 fps=456 q=-0.0 size=N/A time=00:20:27.18 bitrate=N/A speed=  19x    frame=29681 fps=456 q=-0.0 size=N/A time=00:20:37.94 bitrate=N/A speed=  19x    frame=29942 fps=457 q=-0.0 size=N/A time=00:20:48.83 bitrate=N/A speed=19.1x    frame=30169 fps=457 q=-0.0 size=N/A time=00:20:58.29 bitrate=N/A speed=19.1x    frame=30388 fps=456 q=-0.0 size=N/A time=00:21:07.43 bitrate=N/A speed=  19x    frame=30610 fps=456 q=-0.0 size=N/A time=00:21:16.69 bitrate=N/A speed=  19x    frame=30851 fps=456 q=-0.0 size=N/A time=00:21:26.74 bitrate=N/A speed=  19x    frame=31109 fps=457 q=-0.0 size=N/A time=00:21:37.50 bitrate=N/A speed=  19x    frame=31403 fps=458 q=-0.0 size=N/A time=00:21:49.76 bitrate=N/A speed=19.1x    frame=31679 fps=458 q=-0.0 size=N/A time=00:22:01.27 bitrate=N/A speed=19.1x    frame=31914 fps=458 q=-0.0 size=N/A time=00:22:11.07 bitrate=N/A speed=19.1x    frame=32135 fps=458 q=-0.0 size=N/A time=00:22:20.29 bitrate=N/A speed=19.1x    frame=32354 fps=458 q=-0.0 size=N/A time=00:22:29.43 bitrate=N/A speed=19.1x    frame=32588 fps=458 q=-0.0 size=N/A time=00:22:39.19 bitrate=N/A speed=19.1x    frame=32779 fps=457 q=-0.0 size=N/A time=00:22:47.15 bitrate=N/A speed=19.1x    frame=32962 fps=456 q=-0.0 size=N/A time=00:22:54.79 bitrate=N/A speed=  19x    frame=33149 fps=456 q=-0.0 size=N/A time=00:23:02.58 bitrate=N/A speed=  19x    frame=33364 fps=455 q=-0.0 size=N/A time=00:23:11.55 bitrate=N/A speed=  19x    frame=33584 fps=455 q=-0.0 size=N/A time=00:23:20.73 bitrate=N/A speed=  19x    frame=33826 fps=455 q=-0.0 size=N/A time=00:23:30.82 bitrate=N/A speed=  19x    frame=34075 fps=455 q=-0.0 size=N/A time=00:23:41.21 bitrate=N/A speed=  19x    [Parsed_psnr_10 @ 000001a114f09f00] PSNR y:48.097949 u:50.240418 v:50.040311 average:48.677884 min:42.194921 max:inf
[out#0/null @ 000001a114e74cc0] video:14698KiB audio:267532KiB subtitle:0KiB other streams:0KiB global headers:0KiB muxing overhead: unknown
frame=34207 fps=456 q=-0.0 Lsize=N/A time=00:23:46.71 bitrate=N/A speed=  19x    
